<svg id="visual" viewBox="0 0 960 540" width="960" height="540" xmlns="http://www.w3.org/2000/svg" xmlns:xlink="http://www.w3.org/1999/xlink" version="1.1"><path d="M863 540L873 0L960 0L960 540Z" fill="#003333"></path><path d="M815 540L825 0L874 0L864 540Z" fill="#022e2f"></path><path d="M748 540L767 0L826 0L816 540Z" fill="#04292a"></path><path d="M575 540L633 0L768 0L749 540Z" fill="#062526"></path><path d="M498 540L594 0L634 0L576 540Z" fill="#072021"></path><path d="M402 540L508 0L595 0L499 540Z" fill="#071c1c"></path><path d="M181 540L239 0L509 0L403 540Z" fill="#051818"></path><path d="M153 540L201 0L240 0L182 540Z" fill="#031313"></path><path d="M0 540L0 0L202 0L154 540Z" fill="#000d0d"></path></svg>